<?xml version="1.0" encoding="UTF-8" standalone="no"?>
<svg
   xmlns:dc="http://purl.org/dc/elements/1.1/"
   xmlns:cc="http://creativecommons.org/ns#"
   xmlns:rdf="http://www.w3.org/1999/02/22-rdf-syntax-ns#"
   xmlns:svg="http://www.w3.org/2000/svg"
   xmlns="http://www.w3.org/2000/svg"
   id="svg8"
   version="1.1"
   viewBox="0 0 31.379724 48.253944"
   height="182.37711"
   width="118.60053">
  <defs
     id="defs2" />
  <metadata
     id="metadata5">
    <rdf:RDF>
      <cc:Work
         rdf:about="">
        <dc:format>image/svg+xml</dc:format>
        <dc:type
           rdf:resource="http://purl.org/dc/dcmitype/StillImage" />
        <dc:title></dc:title>
      </cc:Work>
    </rdf:RDF>
  </metadata>
  <g
     transform="translate(-123.47832,-174.90455)"
     id="layer1">
    <g
       transform="matrix(5.3051904,0,0,5.3051904,-529.48855,-844.76206)"
       id="g824">
      <path
         id="path1301"
         d="m 125.38039,192.21669 v 1.56631 c -0.16708,-0.0418 -0.35096,-0.063 -0.55345,-0.063 -0.56445,0 -0.99127,0.16224 -1.28054,0.48679 -0.28928,0.3175 -0.43409,0.77591 -0.43409,1.37563 0,0.35278 0.0599,0.66689 0.17984,0.94206 0.11994,0.27517 0.26475,0.51145 0.43408,0.709 0.16933,0.1905 0.39146,0.41263 0.66663,0.66663 0.33161,0.29633 0.57876,0.56091 0.74104,0.79375 0.14962,0.20573 0.22907,0.4437 0.24649,0.71003 v 0.22118 h 10e-4 c -0.0316,0.4008 -0.22928,0.60358 -0.59686,0.60358 -0.40217,0 -0.60307,-0.24008 -0.60307,-0.71986 v -0.52916 h -1.1007 v 0.45527 c 0,0.59972 0.14808,1.06192 0.44441,1.38648 0.29634,0.3175 0.72644,0.47593 1.29088,0.47593 0.56445,0 0.99506,-0.15843 1.2914,-0.47593 0.29633,-0.32456 0.44441,-0.78676 0.44441,-1.38648 0,-0.0602 -0.004,-0.11775 -0.008,-0.1757 v -2.64997 h 0.40256 c 0.26811,0 0.46193,0.074 0.58187,0.22221 0.11992,0.14111 0.17984,0.38066 0.17984,0.71933 v 1.16427 c -5.3e-4,0.29754 -5.3e-4,0.63811 0,0.91003 h 1.17305 c -0.001,-0.30744 2.7e-4,-0.62845 0,-0.89917 l -0.009,-1.14309 c -0.003,-0.40921 -0.0599,-0.74457 -0.17984,-1.00562 -0.11994,-0.26811 -0.31755,-0.45865 -0.59272,-0.57154 0.508,-0.23989 0.76222,-0.74075 0.76222,-1.50275 v -0.58188 c 0,-0.57855 -0.13772,-1.00537 -0.41289,-1.28054 -0.27516,-0.28222 -0.71286,-0.42375 -1.31258,-0.42375 z m 1.16376,1.05834 h 0.5612 c 0.20461,0 0.35272,0.0604 0.44442,0.18035 0.0988,0.11994 0.14831,0.31376 0.14831,0.58187 v 0.73019 c 0,0.28222 -0.0599,0.48312 -0.17983,0.60306 -0.11289,0.11992 -0.286,0.18036 -0.51884,0.18036 h -0.45526 z m -1.68569,1.50326 c 0.19049,0 0.3353,0.0599 0.43408,0.17984 0.037,0.0423 0.0647,0.0976 0.0879,0.15968 v 2.10426 c -0.0379,-0.0359 -0.0689,-0.0678 -0.10904,-0.1049 -0.3316,-0.29633 -0.58204,-0.56092 -0.75137,-0.79375 -0.16228,-0.23283 -0.2434,-0.50449 -0.2434,-0.81494 0,-0.254 0.0495,-0.43747 0.14831,-0.55035 0.0988,-0.11995 0.24307,-0.17984 0.43357,-0.17984 z"
         style="font-style:normal;font-variant:normal;font-weight:bold;font-stretch:normal;font-size:10.58333302px;line-height:1.25;font-family:'Bebas Neue';-inkscape-font-specification:'Bebas Neue, Bold';font-variant-ligatures:normal;font-variant-caps:normal;font-variant-numeric:normal;font-feature-settings:normal;text-align:start;letter-spacing:0px;word-spacing:0px;writing-mode:lr-tb;text-anchor:start;fill:#000000;fill-opacity:1;stroke:none;stroke-width:0.26458332" />
      <g
         id="g1322">
        <path
           id="path1303"
           d="m 123.53703,192.2017 0.41856,1.2375 h 0.56233 l 0.41855,-1.2375 h -0.37175 l -0.30982,0.94031 -0.30234,-0.94031 z"
           style="font-style:normal;font-variant:normal;font-weight:bold;font-stretch:normal;font-size:10.58333302px;line-height:1.25;font-family:'Bebas Neue';-inkscape-font-specification:'Bebas Neue, Bold';font-variant-ligatures:normal;font-variant-caps:normal;font-variant-numeric:normal;font-feature-settings:normal;text-align:start;letter-spacing:0px;word-spacing:0px;writing-mode:lr-tb;text-anchor:start;fill:#c82121;fill-opacity:0.96932511;stroke:none;stroke-width:0.09111296" />
        <path
           style="font-style:normal;font-variant:normal;font-weight:bold;font-stretch:normal;font-size:10.58333302px;line-height:1.25;font-family:'Bebas Neue';-inkscape-font-specification:'Bebas Neue, Bold';font-variant-ligatures:normal;font-variant-caps:normal;font-variant-numeric:normal;font-feature-settings:normal;text-align:start;letter-spacing:0px;word-spacing:0px;writing-mode:lr-tb;text-anchor:start;fill:#c82121;fill-opacity:0.96932511;stroke:none;stroke-width:0.09111296"
           d="m 128.99567,201.26404 -0.41856,-1.2375 h -0.56233 l -0.41855,1.2375 h 0.37175 l 0.30982,-0.94031 0.30234,0.94031 z"
           id="path1305" />
      </g>
    </g>
  </g>
</svg>
